<svg xmlns="http://www.w3.org/2000/svg" width="16" height="16" viewBox="0 0 16 16">
  <path fill="#1D1D20" fill-rule="evenodd" d="M5.70710678,4.29289322 L8,6.58578644 L10.2928932,4.29289322 C10.6834175,3.90236893 11.3165825,3.90236893 11.7071068,4.29289322 C12.0976311,4.68341751 12.0976311,5.31658249 11.7071068,5.70710678 L9.415,8 L11.7071068,10.2928932 C12.0675907,10.6533772 12.0953203,11.2206082 11.7902954,11.6128994 L11.7071068,11.7071068 C11.3466228,12.0675907 10.7793918,12.0953203 10.3871006,11.7902954 L10.2928932,11.7071068 L8,9.41421356 L5.70710678,11.7071068 C5.31658249,12.0976311 4.68341751,12.0976311 4.29289322,11.7071068 C3.93240926,11.3466228 3.90467972,10.7793918 4.20970461,10.3871006 L4.29289322,10.2928932 L6.585,8 L4.29289322,5.70710678 C3.90236893,5.31658249 3.90236893,4.68341751 4.29289322,4.29289322 C4.68341751,3.90236893 5.31658249,3.90236893 5.70710678,4.29289322 Z"/>
</svg>
