<svg xmlns="http://www.w3.org/2000/svg" width="16" height="16" viewBox="0 0 16 16">
  <path fill="#1D1D20" fill-rule="evenodd" d="M8,1.5 C7.175,1.5 6.5,2.175 6.5,3 C6.5,3.825 7.175,4.5 8,4.5 C8.825,4.5 9.5,3.825 9.5,3 C9.5,2.175 8.825,1.5 8,1.5 Z M8,11.5 C7.175,11.5 6.5,12.175 6.5,13 C6.5,13.825 7.175,14.5 8,14.5 C8.825,14.5 9.5,13.825 9.5,13 C9.5,12.175 8.825,11.5 8,11.5 Z M8,6.5 C7.175,6.5 6.5,7.175 6.5,8 C6.5,8.825 7.175,9.5 8,9.5 C8.825,9.5 9.5,8.825 9.5,8 C9.5,7.175 8.825,6.5 8,6.5 Z"/>
</svg>
