<svg xmlns="http://www.w3.org/2000/svg" width="16" height="16" viewBox="0 0 16 16">
  <path fill="#1D1D20" fill-rule="evenodd" d="M13.7071068,2.29289322 C14.0675907,2.65337718 14.0953203,3.22060824 13.7902954,3.61289944 L13.7071068,3.70710678 L5.414,12 L9,12 C9.55228475,12 10,12.4477153 10,13 C10,13.5522847 9.55228475,14 9,14 L2.92476146,13.9972121 L2.92476146,13.9972121 L2.79927424,13.9797599 L2.79927424,13.9797599 L2.68785748,13.9502619 L2.68785748,13.9502619 L2.57677845,13.9063266 L2.57677845,13.9063266 L2.47929125,13.8540045 L2.47929125,13.8540045 L2.38297765,13.7870723 L2.38297765,13.7870723 L2.29285919,13.7070891 L2.29285919,13.7070891 C2.25749917,13.6717127 2.22531295,13.6343256 2.19633458,13.5953066 L2.12467117,13.4840621 L2.12467117,13.4840621 L2.07122549,13.371336 L2.07122549,13.371336 L2.03584514,13.265993 L2.03584514,13.265993 L2.0110178,13.1484669 L2.0110178,13.1484669 L2.00397748,13.0898018 L2.00397748,13.0898018 L2,13 L2,13 L2,7 C2,6.44771525 2.44771525,6 3,6 C3.55228475,6 4,6.44771525 4,7 L4,10.584 L12.2928932,2.29289322 C12.6834175,1.90236893 13.3165825,1.90236893 13.7071068,2.29289322 Z" transform="rotate(180 8 8)"/>
</svg>
