<svg xmlns="http://www.w3.org/2000/svg" width="480" height="288" viewBox="0 0 480 288">
  <g fill="none" fill-rule="evenodd" transform="rotate(180 240 144)">
    <path fill="#E5E5E6" d="M0,96 L96,96 L96,192 C42.980664,192 6.49299601e-15,149.019336 0,96 L0,96 L0,96 Z" transform="matrix(-1 0 0 1 96 0)"/>
    <path fill="#EFEFF0" d="M288,0 L384,0 L384,96 C330.980664,96 288,53.019336 288,0 L288,0 L288,0 Z" transform="rotate(180 336 48)"/>
    <path fill="#E5E5E6" d="M288,96 L384,96 L384,192 C330.980664,192 288,149.019336 288,96 L288,96 L288,96 Z" transform="matrix(-1 0 0 1 672 0)"/>
    <path fill="#E5E5E6" d="M192,192 L288,192 L288,288 C234.980664,288 192,245.019336 192,192 L192,192 L192,192 Z"/>
    <path fill="#E5E5E6" d="M384,0 L480,0 L480,96 C426.980664,96 384,53.019336 384,0 L384,0 L384,0 Z" transform="matrix(-1 0 0 1 864 0)"/>
    <path fill="#EFEFF0" d="M384,192 L480,192 L480,288 C426.980664,288 384,245.019336 384,192 L384,192 L384,192 Z" transform="matrix(0 -1 -1 0 672 672)"/>
    <path fill="#FFF" d="M384,96 L480,96 L480,192 C426.980664,192 384,149.019336 384,96 L384,96 L384,96 Z" transform="matrix(0 1 1 0 288 -288)"/>
    <path fill="#FFF" d="M100,0 L288,0 L288,188 C184.170467,188 100,103.829533 100,0 L100,0 L100,0 Z" transform="rotate(-90 194 94)"/>
    <path fill="#FFF" d="M0,0 L96,0 L96,96 C42.980664,96 6.49299601e-15,53.019336 0,0 L0,0 L0,0 Z" transform="rotate(180 48 48)"/>
    <path fill="#EFEFF0" d="M96,192 L192,192 L192,288 C138.980664,288 96,245.019336 96,192 L96,192 L96,192 Z" transform="rotate(90 144 240)"/>
    <path fill="#EFEFF0" d="M0,192 L96,192 L96,288 C42.980664,288 6.49299601e-15,245.019336 0,192 L0,192 L0,192 Z" transform="rotate(-90 48 240)"/>
  </g>
</svg>
