<svg xmlns="http://www.w3.org/2000/svg" width="20" height="20" viewBox="0 0 20 20">
  <path fill="#1D1D20" fill-rule="evenodd" d="M16,2 C17.1045695,2 18,2.8954305 18,4 L18,16 C18,17.1045695 17.1045695,18 16,18 L4,18 C2.8954305,18 2,17.1045695 2,16 L2,4 C2,2.8954305 2.8954305,2 4,2 L16,2 Z M10.8307601,5.44253538 C10.4170793,4.81777955 9.45470106,4.85452989 9.10557281,5.5527864 L9.10557281,5.5527864 L5.10557281,13.5527864 L5.05943572,13.6601042 C4.88868578,14.1307708 5.09409209,14.66508 5.5527864,14.8944272 L5.5527864,14.8944272 L5.66010424,14.9405643 C6.13077083,15.1113142 6.66508003,14.9059079 6.89442719,14.4472136 L6.89442719,14.4472136 L7.61778094,13 L12.3817809,13 L13.1055728,14.4472136 L13.1637448,14.548514 C13.4378281,14.9675139 13.9885193,15.1237744 14.4472136,14.8944272 C14.9411921,14.6474379 15.1414164,14.0467649 14.8944272,13.5527864 L14.8944272,13.5527864 L10.8944272,5.5527864 Z M10,8.236 L11.3817809,11 L8.61778094,11 L10,8.236 Z"/>
</svg>
