<?xml version="1.0" encoding="UTF-8"?>
<svg width="384px" height="288px" viewBox="0 0 384 288" version="1.1" xmlns="http://www.w3.org/2000/svg" xmlns:xlink="http://www.w3.org/1999/xlink">
    <title>C2B49B27-858A-4E73-AE85-140A241284A5</title>
    <g id="Landingpage" stroke="none" stroke-width="1" fill="none" fill-rule="evenodd">
        <g id="LandingPage-3" transform="translate(-576.000000, -288.000000)">
            <g id="Group-4" transform="translate(480.000000, 0.000000)">
                <g id="pattern-1" transform="translate(96.000000, 288.000000)">
                    <path d="M192,96 L288,96 L288,192 C234.980664,192 192,149.019336 192,96 L192,96 L192,96 Z" id="Rectangle" fill="#E5E5E6" transform="translate(240.000000, 144.000000) scale(-1, -1) translate(-240.000000, -144.000000) "></path>
                    <path d="M192,192 L288,192 L288,288 C234.980664,288 192,245.019336 192,192 L192,192 L192,192 Z" id="Rectangle" fill="#EFEFF0"></path>
                    <path d="M288,96 L384,96 L384,192 C330.980664,192 288,149.019336 288,96 L288,96 L288,96 Z" id="Rectangle" fill="#E5E5E6" transform="translate(336.000000, 144.000000) scale(-1, 1) translate(-336.000000, -144.000000) "></path>
                    <path d="M288,192 L384,192 L384,288 C330.980664,288 288,245.019336 288,192 L288,192 L288,192 Z" id="Rectangle" fill="#FFFFFF" transform="translate(336.000000, 240.000000) scale(-1, 1) rotate(-90.000000) translate(-336.000000, -240.000000) "></path>
                    <path d="M288,0 L384,0 L384,96 C330.980664,96 288,53.019336 288,0 L288,0 L288,0 Z" id="Rectangle" fill="#EFEFF0" transform="translate(336.000000, 48.000000) scale(1, -1) rotate(-90.000000) translate(-336.000000, -48.000000) "></path>
                    <path d="M0,0 L96,0 L96,96 C42.980664,96 6.49299601e-15,53.019336 0,0 L0,0 L0,0 Z" id="Rectangle" fill="#FFFFFF" transform="translate(48.000000, 48.000000) scale(-1, -1) translate(-48.000000, -48.000000) "></path>
                    <path d="M0,96 L192,96 L192,288 C85.961328,288 1.2985992e-14,202.038672 0,96 L0,96 L0,96 Z" id="Rectangle" fill="#E5E5E6" opacity="0.200000003" transform="translate(96.000000, 192.000000) scale(-1, 1) rotate(-90.000000) translate(-96.000000, -192.000000) "></path>
                </g>
            </g>
        </g>
    </g>
</svg>