<?xml version="1.0" encoding="UTF-8"?>
<svg width="480px" height="288px" viewBox="0 0 480 288" version="1.1" xmlns="http://www.w3.org/2000/svg" xmlns:xlink="http://www.w3.org/1999/xlink">
    <title>D9B85EA2-0A2E-43A0-A4C8-11A144C60D52</title>
    <g id="Landingpage" stroke="none" stroke-width="1" fill="none" fill-rule="evenodd">
        <g id="LandingPage-3" transform="translate(-960.000000, 0.000000)">
            <g id="Group-4" transform="translate(480.000000, 0.000000)">
                <g id="Group" transform="translate(480.000000, 0.000000)">
                    <g id="pattern-2" transform="translate(240.000000, 144.000000) scale(-1, -1) translate(-240.000000, -144.000000) ">
                        <path d="M0,96 L96,96 L96,192 C42.980664,192 6.49299601e-15,149.019336 0,96 L0,96 L0,96 Z" id="Rectangle" fill="#E5E5E6" transform="translate(48.000000, 144.000000) scale(-1, 1) translate(-48.000000, -144.000000) "></path>
                        <path d="M288,0 L384,0 L384,96 C330.980664,96 288,53.019336 288,0 L288,0 L288,0 Z" id="Rectangle" fill="#EFEFF0" transform="translate(336.000000, 48.000000) scale(-1, -1) translate(-336.000000, -48.000000) "></path>
                        <path d="M288,96 L384,96 L384,192 C330.980664,192 288,149.019336 288,96 L288,96 L288,96 Z" id="Rectangle" fill="#E5E5E6" transform="translate(336.000000, 144.000000) scale(-1, 1) translate(-336.000000, -144.000000) "></path>
                        <path d="M384,0 L480,0 L480,96 C426.980664,96 384,53.019336 384,0 L384,0 L384,0 Z" id="Rectangle" fill="#E5E5E6" transform="translate(432.000000, 48.000000) scale(-1, 1) translate(-432.000000, -48.000000) "></path>
                        <path d="M384,192 L480,192 L480,288 C426.980664,288 384,245.019336 384,192 L384,192 L384,192 Z" id="Rectangle" fill="#EFEFF0" transform="translate(432.000000, 240.000000) scale(-1, 1) rotate(-90.000000) translate(-432.000000, -240.000000) "></path>
                        <path d="M384,96 L480,96 L480,192 C426.980664,192 384,149.019336 384,96 L384,96 L384,96 Z" id="Rectangle" fill="#FFFFFF" transform="translate(432.000000, 144.000000) scale(1, -1) rotate(-90.000000) translate(-432.000000, -144.000000) "></path>
                        <path d="M100,0 L288,0 L288,188 C184.170467,188 100,103.829533 100,0 L100,0 L100,0 Z" id="Rectangle" fill="#FFFFFF" transform="translate(194.000000, 94.000000) rotate(-90.000000) translate(-194.000000, -94.000000) "></path>
                        <path d="M0,0 L96,0 L96,96 C42.980664,96 6.49299601e-15,53.019336 0,0 L0,0 L0,0 Z" id="Rectangle" fill="#FFFFFF" transform="translate(48.000000, 48.000000) scale(-1, -1) translate(-48.000000, -48.000000) "></path>
                        <path d="M0,192 L96,192 L96,288 C42.980664,288 6.49299601e-15,245.019336 0,192 L0,192 L0,192 Z" id="Rectangle" fill="#EFEFF0" opacity="0.400000006" transform="translate(48.000000, 240.000000) rotate(-90.000000) translate(-48.000000, -240.000000) "></path>
                    </g>
                </g>
            </g>
        </g>
    </g>
</svg>