<?xml version="1.0" encoding="UTF-8"?>
<svg width="20px" height="20px" viewBox="0 0 20 20" version="1.1" xmlns="http://www.w3.org/2000/svg" xmlns:xlink="http://www.w3.org/1999/xlink">
    <title>check</title>
    <g id="Landingpage" stroke="none" stroke-width="1" fill="none" fill-rule="evenodd">
        <g id="LandingPage" transform="translate(-108.000000, -1856.000000)" fill="#179735" fill-rule="nonzero">
            <g id="section-bg" transform="translate(0.000000, 1520.000000)">
                <g id="Content" transform="translate(108.000000, 126.000000)">
                    <g id="item" transform="translate(0.000000, 204.000000)">
                        <g id="check" transform="translate(0.000000, 6.000000)">
                            <path d="M10,0 C15.5228475,0 20,4.4771525 20,10 C20,15.5228475 15.5228475,20 10,20 C4.4771525,20 0,15.5228475 0,10 C0,4.4771525 4.4771525,0 10,0 Z M10,2 C5.581722,2 2,5.581722 2,10 C2,14.418278 5.581722,18 10,18 C14.418278,18 18,14.418278 18,10 C18,5.581722 14.418278,2 10,2 Z M14.6961458,6.28209961 C15.0621324,6.63699566 15.0985842,7.20373305 14.79963,7.60066997 L14.7179004,7.69614584 L8.89971858,13.6961458 C8.53707678,14.0701202 7.95526958,14.0988874 7.55891003,13.7824476 L7.46391779,13.6961458 L5.28209961,11.4461458 C4.89762888,11.0496604 4.90736872,10.4165703 5.30385416,10.0320996 C5.66984072,9.67720355 6.23743122,9.65820289 6.62498388,9.96922623 L6.71790039,10.0538542 L8.181,11.563 L13.2820996,6.30385416 C13.6665703,5.90736872 14.2996604,5.89762888 14.6961458,6.28209961 Z" id="Combined-Shape"></path>
                        </g>
                    </g>
                </g>
            </g>
        </g>
    </g>
</svg>