<?xml version="1.0" encoding="UTF-8"?>
<svg width="48px" height="48px" viewBox="0 0 48 48" version="1.1" xmlns="http://www.w3.org/2000/svg" xmlns:xlink="http://www.w3.org/1999/xlink">
    <title>icon-4</title>
    <g id="Landingpage" stroke="none" stroke-width="1" fill="none" fill-rule="evenodd">
        <g id="LandingPage" transform="translate(-108.000000, -1180.000000)">
            <g id="Features" transform="translate(108.000000, 832.000000)">
                <g id="icon-4" transform="translate(0.000000, 348.000000)">
                    <rect id="Rectangle" fill="#FFE6E6" x="0" y="0" width="48" height="48" rx="8"></rect>
                    <g id="Group" transform="translate(12.000000, 12.000000)" stroke="#C30101" stroke-linecap="round" stroke-linejoin="round" stroke-width="2">
                        <path d="M20.0000286,8.66666667 C20.0000286,13.4533333 15.52,17.3333333 10,17.3333333 C8.39303032,17.3434114 6.80228996,17.0116284 5.33333333,16.36 L4.46666667,16.7333333 L-8.14852072e-05,18.6666667 L1.53333333,13.3333333 C0.53038053,11.9848525 -0.00769912464,10.3472188 -8.14852072e-05,8.66666667 C-8.14852072e-05,3.88 4.48,0 10,0 C14.84,0 18.88,2.98666667 19.8,6.94666667 C19.9344834,7.5100677 20.0016197,8.0874397 20.0000286,8.66666667 Z" id="Path"></path>
                        <path d="M19.8,6.94666667 C22.3374248,8.40121874 23.9301993,11.0760687 24.0000815,14 C24.0076991,15.6805521 23.4696195,17.3181859 22.4666667,18.6666667 L24.0000815,24 L18.6666667,21.6933333 C17.19771,22.3449617 15.6069697,22.6767447 14,22.6666667 C9.92305224,22.8170997 6.16659117,20.4660094 4.52,16.7333333" id="Path"></path>
                    </g>
                </g>
            </g>
        </g>
    </g>
</svg>