<?xml version="1.0" encoding="UTF-8"?>
<svg width="48px" height="48px" viewBox="0 0 48 48" version="1.1" xmlns="http://www.w3.org/2000/svg" xmlns:xlink="http://www.w3.org/1999/xlink">
    <title>icon-5</title>
    <g id="Landingpage" stroke="none" stroke-width="1" fill="none" fill-rule="evenodd">
        <g id="LandingPage" transform="translate(-940.000000, -1180.000000)">
            <g id="Features" transform="translate(108.000000, 832.000000)">
                <g id="icon-5" transform="translate(832.000000, 348.000000)">
                    <rect id="Rectangle" fill="#FFE6E6" x="0" y="0" width="48" height="48" rx="8"></rect>
                    <g id="Group" transform="translate(12.000000, 12.000000)" stroke="#C30101" stroke-linecap="round" stroke-linejoin="round" stroke-width="2">
                        <path d="M6.66666667,22.6666667 L1.33333333,22.6666667 C0.596953667,22.6666667 0,22.069713 0,21.3333333 L0,1.33333333 C0,0.596953667 0.596953667,0 1.33333333,0 L12.7866667,0 C13.1364532,0.00147282873 13.4716525,0.140341115 13.72,0.386666667 L18.28,4.94666667 C18.5263256,5.19501418 18.6651938,5.5302135 18.6666667,5.88 L18.6666667,6.66666667" id="Path"></path>
                        <path d="M9.33333333,16 C9.33333333,13.0544813 11.721148,10.6666667 14.6666667,10.6666667 C17.6121853,10.6666667 20,13.0544813 20,16 C20,18.9455187 17.6121853,21.3333333 14.6666667,21.3333333 C13.2521787,21.3333333 11.8956245,20.7714302 10.8954305,19.7712362 C9.89523648,18.7710421 9.33333333,17.4144879 9.33333333,16 Z M24,24 L18.6666667,19.4666667" id="Shape"></path>
                    </g>
                </g>
            </g>
        </g>
    </g>
</svg>